<svg xmlns="http://www.w3.org/2000/svg" width="327.256" height="82.621" viewBox="0 0 327.256 82.621">
  <g id="Group_45" data-name="Group 45" transform="translate(-501 -342.27)">
    <g id="Group_1" data-name="Group 1" transform="translate(607.25 354.13)">
      <path id="Path_1" data-name="Path 1" d="M-11.961-56.186V-66.5H-.41v-4.525H-11.961V-76.4H.278v-4.525H-17.228v24.739Z" transform="translate(32.284 81.333)" fill="#fff"/>
      <path id="Path_2" data-name="Path 2" d="M-29.483-58.123A11.481,11.481,0,0,0-18.95-64.205l-4.525-2.188a6.706,6.706,0,0,1-6.009,3.6c-4.3,0-7.566-3.449-7.566-8.122s3.264-8.123,7.566-8.123a6.776,6.776,0,0,1,6.009,3.6l4.525-2.225a11.415,11.415,0,0,0-10.533-6.046c-7.233,0-12.981,5.192-12.981,12.8s5.749,12.8,12.981,12.8" transform="translate(77.447 83.714)" fill="#fff"/>
      <path id="Path_4" data-name="Path 4" d="M-50.542-56.186V-80.925h-5.3v9.717H-67.528v-9.717h-5.267v24.739h5.267V-66.571h11.683v10.385Z" transform="translate(134.385 81.333)" fill="#fff"/>
      <path id="Path_5" data-name="Path 5" d="M-46.415-29.061c0,4.6-2.967,8.123-7.529,8.123s-7.492-3.524-7.492-8.123c0-4.636,2.93-8.123,7.492-8.123s7.529,3.487,7.529,8.123m5.415,0c0-7.454-5.452-12.8-12.944-12.8-7.454,0-12.907,5.341-12.907,12.8s5.452,12.8,12.907,12.8c7.493,0,12.944-5.341,12.944-12.8" transform="translate(154.455 41.856)" fill="#fff"/>
      <path id="Path_6" data-name="Path 6" d="M-32.936-18.027a3.414,3.414,0,0,1-3.709,3.412H-42.17v-6.824h5.526a3.414,3.414,0,0,1,3.709,3.412m5.378.037c0-4.6-3.153-7.974-8.308-7.974H-47.437V-1.225h5.267v-8.864h3.857l4.858,8.864h6.046l-5.563-9.42a7.1,7.1,0,0,0,5.415-7.344" transform="translate(164.612 26.371)" fill="#fff"/>
      <path id="Path_8" data-name="Path 8" d="M-16.436-47.34V-64.18h2.14v-4h-9.377v4h2.14v16.84h-2.14v4H-14.3v-4Z" transform="translate(24.745 68.561)" fill="#fff"/>
      <path id="Path_9" data-name="Path 9" d="M-29.565-58.928A13.01,13.01,0,0,1-42.582-71.9,13.01,13.01,0,0,1-29.565-84.874,13.042,13.042,0,0,1-21.1-81.755l.066.057-3.478,3.465-.056-.043a8.053,8.053,0,0,0-4.995-1.715A8.114,8.114,0,0,0-37.684-71.9a8.114,8.114,0,0,0,8.119,8.091,8.057,8.057,0,0,0,5.873-2.509V-69.1h-5.954v-.013a.245.245,0,0,1-.166-.232.246.246,0,0,1,.073-.174l4.379-4.376h6.484l-.007,9.4-.015.021a13.05,13.05,0,0,1-10.669,5.545" transform="translate(42.582 118.112)" fill="#fff"/>
      <path id="Path_11" data-name="Path 11" d="M-38.5-36.137h-8.2l4.117-11.349Zm8.753,8.827-9.532-24.738h-6.6L-55.447-27.31h5.786l1.558-4.265h11.053l1.558,4.265Z" transform="translate(79.993 85.841)" fill="#fff"/>
      <path id="Path_12" data-name="Path 12" d="M-35.716-56.185v-4.636H-46.175v-20.1h-5.267v24.738Z" transform="translate(103.971 114.716)" fill="#fff"/>
      <path id="Path_13" data-name="Path 13" d="M-34.622-39.338c0,1.78-1.187,2.93-3.19,2.93H-44.6v-5.823h6.787a2.891,2.891,0,0,1,3.19,2.893M-35.1-49.463A2.67,2.67,0,0,1-38-46.718h-6.6v-5.452H-38A2.682,2.682,0,0,1-35.1-49.463m5.378-.89c0-3.3-2.41-6.305-7.121-6.305H-49.866V-31.92H-36.44c4.711,0,7.2-2.967,7.2-6.676a5.994,5.994,0,0,0-4.747-6.082,5.5,5.5,0,0,0,4.266-5.675" transform="translate(121.227 90.451)" fill="#fff"/>
      <path id="Path_15" data-name="Path 15" d="M-38.5-36.137h-8.2l4.117-11.349Zm8.753,8.827-9.532-24.738h-6.6L-55.447-27.31h5.786l1.558-4.265H-37.05l1.557,4.265Z" transform="translate(172.716 85.841)" fill="#fff"/>
      <path id="Path_16" data-name="Path 16" d="M827.983-120.931h-5.266v24.738h5.266Z" transform="translate(-677.463 154.724)" fill="#fff"/>
      <path id="Path_17" data-name="Path 17" d="M-28.472-56.185v-20.1h7.2v-4.636H-41.008v4.636h7.233v20.1Z" transform="translate(194.242 114.716)" fill="#fff"/>
      <path id="Path_18" data-name="Path 18" d="M-50.542-56.185V-80.923h-5.3v9.717H-67.528v-9.717h-5.267v24.738h5.267V-66.57h11.683v10.385Z" transform="translate(248.516 114.716)" fill="#fff"/>
      <path id="Path_19" data-name="Path 19" d="M0-49.11c2.336,2.336,5.748,3.931,10.5,3.931,6.676,0,9.9-3.412,9.9-7.937,0-5.489-5.193-6.713-9.272-7.64-2.856-.668-4.933-1.187-4.933-2.856,0-1.484,1.261-2.522,3.635-2.522a10.554,10.554,0,0,1,7.084,2.708l2.93-3.857a13.758,13.758,0,0,0-9.643-3.45C4.376-70.733.816-67.4.816-63.278c0,5.526,5.192,6.639,9.235,7.566,2.856.668,5.007,1.3,5.007,3.152,0,1.409-1.41,2.782-4.3,2.782a10.847,10.847,0,0,1-7.863-3.338Z" transform="translate(200.607 104.155)" fill="#fff"/>
      <path id="Path_20" data-name="Path 20" d="M-32.936-18.027a3.414,3.414,0,0,1-3.709,3.412H-42.17v-6.824h5.526a3.414,3.414,0,0,1,3.709,3.412m5.378.037c0-4.6-3.153-7.974-8.308-7.974H-47.437V-1.225h5.267V-10.09h3.857l4.858,8.864h6.046l-5.563-9.42a7.1,7.1,0,0,0,5.415-7.344" transform="translate(142.888 59.757)" fill="#fff"/>
    </g>
    <g id="Group_2" data-name="Group 2" transform="translate(501 342.27)">
      <path id="Path_21" data-name="Path 21" d="M-150-150a34.978,34.978,0,0,1-49.466,0,34.978,34.978,0,0,1,0-49.466,34.977,34.977,0,0,1,49.466,0A34.977,34.977,0,0,1-150-150m4.478-53.944a41.311,41.311,0,0,0-58.422,0,41.311,41.311,0,0,0,0,58.422,41.311,41.311,0,0,0,58.422,0,41.311,41.311,0,0,0,0-58.422" transform="translate(216.042 216.042)" fill="#fec10d"/>
      <path id="Path_23" data-name="Path 23" d="M-22.116-66.5V-90.152h3.007v-5.623H-31.853v5.623h3.006V-66.5h-3.006v5.623h12.744V-66.5Z" transform="translate(49.326 119.635)" fill="#fec10d"/>
      <path id="Path_24" data-name="Path 24" d="M-40.429-80.583a17.79,17.79,0,0,1-17.8-17.74,17.791,17.791,0,0,1,17.8-17.741A17.833,17.833,0,0,1-28.858-111.8l.09.077-4.755,4.739-.076-.059a11.01,11.01,0,0,0-6.83-2.345,11.1,11.1,0,0,0-11.1,11.064,11.1,11.1,0,0,0,11.1,11.064,11.017,11.017,0,0,0,8.032-3.43v-3.8h-8.141v-.018a.336.336,0,0,1-.227-.317.336.336,0,0,1,.1-.238l5.989-5.984h8.867l-.009,12.853-.02.029a17.845,17.845,0,0,1-14.59,7.583" transform="translate(91.821 139.634)" fill="#fec10d"/>
    </g>
  </g>
</svg>
