<svg xmlns="http://www.w3.org/2000/svg" width="207.913" height="52.491" viewBox="0 0 207.913 52.491">
  <g id="Group_39" data-name="Group 39" transform="translate(-501 -342.27)">
    <g id="Group_1" data-name="Group 1" transform="translate(568.503 349.805)">
      <path id="Path_1" data-name="Path 1" d="M-13.882-65.208v-6.551h7.339v-2.875h-7.339V-78.05h7.776v-2.875H-17.228v15.717Z" transform="translate(26.794 81.184)" fill="#fff"/>
      <path id="Path_2" data-name="Path 2" d="M-34.217-67.455a7.294,7.294,0,0,0,6.692-3.864L-30.4-72.71a4.261,4.261,0,0,1-3.817,2.286,4.871,4.871,0,0,1-4.807-5.16,4.872,4.872,0,0,1,4.807-5.161A4.3,4.3,0,0,1-30.4-78.459l2.875-1.414a7.252,7.252,0,0,0-6.692-3.841,7.956,7.956,0,0,0-8.247,8.13,7.956,7.956,0,0,0,8.247,8.129" transform="translate(64.69 83.714)" fill="#fff"/>
      <path id="Path_4" data-name="Path 4" d="M-58.657-65.208V-80.925h-3.369v6.174h-7.423v-6.174h-3.346v15.717h3.346v-6.6h7.423v6.6Z" transform="translate(111.925 81.184)" fill="#fff"/>
      <path id="Path_5" data-name="Path 5" d="M-53.867-33.727c0,2.922-1.885,5.161-4.784,5.161s-4.76-2.239-4.76-5.161c0-2.945,1.862-5.161,4.76-5.161s4.784,2.215,4.784,5.161m3.44,0a7.9,7.9,0,0,0-8.224-8.129,7.891,7.891,0,0,0-8.2,8.129,7.891,7.891,0,0,0,8.2,8.129,7.9,7.9,0,0,0,8.224-8.129" transform="translate(122.508 41.856)" fill="#fff"/>
      <path id="Path_6" data-name="Path 6" d="M-38.224-20.921a2.169,2.169,0,0,1-2.356,2.168h-3.511v-4.335h3.511a2.169,2.169,0,0,1,2.356,2.167m3.417.024a4.895,4.895,0,0,0-5.278-5.066h-7.352v15.717h3.346v-5.631h2.451l3.086,5.631h3.841l-3.534-5.985a4.51,4.51,0,0,0,3.44-4.666" transform="translate(121.881 26.223)" fill="#fff"/>
      <path id="Path_8" data-name="Path 8" d="M-19.075-54.941v-10.7h1.36v-2.543h-5.957v2.543h1.36v10.7h-1.36V-52.4h5.957v-2.543Z" transform="translate(24.354 68.423)" fill="#fff"/>
      <path id="Path_9" data-name="Path 9" d="M-34.312-68.39a8.265,8.265,0,0,1-8.27-8.242,8.265,8.265,0,0,1,8.27-8.242,8.286,8.286,0,0,1,5.376,1.982l.042.036-2.209,2.2-.035-.028a5.116,5.116,0,0,0-3.173-1.09,5.155,5.155,0,0,0-5.158,5.14,5.155,5.155,0,0,0,5.158,5.14,5.119,5.119,0,0,0,3.731-1.594v-1.766h-3.783v-.009a.156.156,0,0,1-.105-.147.156.156,0,0,1,.046-.111l2.782-2.78h4.12l0,5.972-.009.013a8.291,8.291,0,0,1-6.779,3.523" transform="translate(42.582 105.991)" fill="#fff"/>
      <path id="Path_11" data-name="Path 11" d="M-44.678-41.939h-5.208l2.616-7.211Zm5.561,5.608-6.056-15.717h-4.194l-6.079,15.717h3.676l.99-2.71h7.022l.99,2.71Z" transform="translate(71.041 73.518)" fill="#fff"/>
      <path id="Path_12" data-name="Path 12" d="M-41.451-65.206v-2.945H-48.1V-80.923h-3.346v15.717Z" transform="translate(84.815 102.393)" fill="#fff"/>
      <path id="Path_13" data-name="Path 13" d="M-40.181-45.654a1.806,1.806,0,0,1-2.026,1.862H-46.52v-3.7h4.312a1.837,1.837,0,0,1,2.026,1.838m-.306-6.433a1.7,1.7,0,0,1-1.838,1.744H-46.52v-3.464h4.194a1.7,1.7,0,0,1,1.838,1.72m3.417-.566c0-2.1-1.531-4.006-4.524-4.006h-8.271v15.717h8.53c2.993,0,4.571-1.885,4.571-4.242a3.808,3.808,0,0,0-3.016-3.864,3.492,3.492,0,0,0,2.71-3.605" transform="translate(95.203 78.127)" fill="#fff"/>
      <path id="Path_15" data-name="Path 15" d="M-44.678-41.939h-5.207l2.615-7.211Zm5.561,5.608-6.056-15.717h-4.195l-6.079,15.717h3.676l.99-2.71h7.022l.989,2.71Z" transform="translate(129.951 73.518)" fill="#fff"/>
      <path id="Path_16" data-name="Path 16" d="M826.062-120.931h-3.346v15.717h3.346Z" transform="translate(-730.434 142.4)" fill="#fff"/>
      <path id="Path_17" data-name="Path 17" d="M-33.044-65.206V-77.978h4.571v-2.945H-41.008v2.945h4.6v12.771Z" transform="translate(138.361 102.393)" fill="#fff"/>
      <path id="Path_18" data-name="Path 18" d="M-58.657-65.206V-80.923h-3.369v6.173h-7.423v-6.173h-3.346v15.717h3.346v-6.6h7.423v6.6Z" transform="translate(184.434 102.393)" fill="#fff"/>
      <path id="Path_19" data-name="Path 19" d="M0-57a9.056,9.056,0,0,0,6.668,2.5c4.241,0,6.292-2.168,6.292-5.042,0-3.487-3.3-4.265-5.891-4.854-1.815-.424-3.134-.754-3.134-1.815,0-.943.8-1.6,2.309-1.6a6.705,6.705,0,0,1,4.5,1.72l1.861-2.45A8.741,8.741,0,0,0,6.48-70.733C2.78-70.733.518-68.612.518-66c0,3.511,3.3,4.218,5.867,4.807,1.814.424,3.181.825,3.181,2,0,.9-.9,1.767-2.733,1.767a6.891,6.891,0,0,1-5-2.121Z" transform="translate(127.45 91.967)" fill="#fff"/>
      <path id="Path_20" data-name="Path 20" d="M-38.224-20.921a2.169,2.169,0,0,1-2.356,2.168h-3.511v-4.336h3.511a2.169,2.169,0,0,1,2.356,2.168m3.417.024a4.895,4.895,0,0,0-5.278-5.066h-7.352v15.717h3.346v-5.632h2.451l3.086,5.632h3.841l-3.534-5.985a4.51,4.51,0,0,0,3.44-4.666" transform="translate(108.079 47.433)" fill="#fff"/>
    </g>
    <g id="Group_2" data-name="Group 2" transform="translate(501 342.27)">
      <path id="Path_21" data-name="Path 21" d="M-174.083-174.083a22.222,22.222,0,0,1-31.427,0,22.223,22.223,0,0,1,0-31.427,22.222,22.222,0,0,1,31.427,0,22.222,22.222,0,0,1,0,31.427m2.845-34.272a26.246,26.246,0,0,0-37.117,0,26.246,26.246,0,0,0,0,37.117,26.246,26.246,0,0,0,37.117,0,26.246,26.246,0,0,0,0-37.117" transform="translate(216.042 216.042)" fill="#fec10d"/>
      <path id="Path_23" data-name="Path 23" d="M-25.667-77.174V-92.2h1.91v-3.572h-8.1V-92.2h1.91v15.029h-1.91V-73.6h8.1v-3.573Z" transform="translate(42.954 110.934)" fill="#fec10d"/>
      <path id="Path_24" data-name="Path 24" d="M-46.921-93.522A11.3,11.3,0,0,1-58.23-104.793a11.3,11.3,0,0,1,11.309-11.271,11.33,11.33,0,0,1,7.352,2.71l.057.049-3.021,3.011-.049-.038a7,7,0,0,0-4.339-1.49,7.049,7.049,0,0,0-7.054,7.029,7.05,7.05,0,0,0,7.054,7.029,7,7,0,0,0,5.1-2.179v-2.415H-46.99v-.011a.214.214,0,0,1-.144-.2.214.214,0,0,1,.063-.151l3.805-3.8h5.633l-.006,8.166-.013.018a11.337,11.337,0,0,1-9.27,4.817" transform="translate(79.571 131.039)" fill="#fec10d"/>
    </g>
  </g>
</svg>
